<svg width="32" height="32" viewBox="0 0 32 32" fill="none" xmlns="http://www.w3.org/2000/svg">
<path d="M27.92 14.6667C27.9736 15.1091 28.0003 15.5543 28 16C28 18.3734 27.2962 20.6935 25.9776 22.6668C24.6591 24.6402 22.7849 26.1783 20.5922 27.0866C18.3995 27.9948 15.9867 28.2324 13.6589 27.7694C11.3312 27.3064 9.19295 26.1635 7.51472 24.4853C5.83649 22.8071 4.6936 20.6689 4.23058 18.3411C3.76756 16.0133 4.0052 13.6005 4.91345 11.4078C5.8217 9.21509 7.35977 7.34094 9.33316 6.02236C11.3066 4.70379 13.6266 4 16 4C17.8581 4.01734 19.6857 4.47424 21.3333 5.33333" stroke="#6B7280" stroke-width="2" stroke-linecap="round" stroke-linejoin="round"/>
<path d="M28 6.66667L16 18.6667L10.6667 13.3333" stroke="#6B7280" stroke-width="2" stroke-linecap="round" stroke-linejoin="round"/>
</svg>
